<svg width="22" height="16" viewBox="0 0 22 16" fill="none" xmlns="http://www.w3.org/2000/svg">
<path d="M21.8122 1.67476C21.6221 1.22711 21.1795 0.914062 20.6652 0.914062H1.3405C0.826218 0.914062 0.38362 1.22711 0.19349 1.67476C0.128036 1.82502 0.09375 1.99093 0.09375 2.16624V14.0619C0.09375 14.2372 0.128036 14.4031 0.19349 14.5534C0.38362 15.001 0.826218 15.3141 1.3405 15.3141H20.6652C21.1795 15.3141 21.6221 15.001 21.8122 14.5534C21.8776 14.4031 21.9119 14.2372 21.9119 14.0619V2.16624C21.9119 1.99093 21.8776 1.82502 21.8122 1.67476ZM19.194 2.16624L11.0028 8.70571L2.81167 2.16624H19.194ZM1.3405 2.59198L8.25687 8.11406L1.3405 13.6361V2.59198ZM2.81167 14.0619L9.2605 8.91232L10.2267 9.68554C10.4543 9.86711 10.7286 9.95789 11.0028 9.95789C11.2771 9.95789 11.5514 9.86711 11.7789 9.68554L12.7452 8.91232L19.194 14.0619H2.81167ZM20.6652 13.6361L13.7488 8.11406L20.6652 2.59198V13.6361Z" fill="white"/>
</svg>
