<svg width="21" height="21" viewBox="0 0 21 21" fill="none" xmlns="http://www.w3.org/2000/svg">
<path d="M0.372619 5.45114C0.323528 6.91296 0.563528 9.82023 2.92535 13.7857C5.28716 17.7566 7.7308 19.3493 9.03989 19.9984C10.349 20.653 12.0344 20.4893 12.9399 19.8893C13.8453 19.2893 13.889 18.9239 13.8181 18.4711C13.7472 18.0348 13.4526 17.3748 12.3344 16.3657C11.3363 15.4657 10.8563 15.3348 10.4908 15.193C10.1199 15.0566 9.32898 15.0075 9.09444 15.5475C8.9308 15.9184 8.7508 16.3384 8.4508 16.4311C8.09626 16.5348 7.68171 16.2948 7.32171 15.9348C6.61262 15.2257 5.52716 13.6111 4.92171 12.5966C4.31626 11.582 3.41625 9.85841 3.12716 8.89841C2.98535 8.41296 2.96898 7.93296 3.2308 7.67114C3.44898 7.45296 3.90716 7.49114 4.3108 7.52932C4.89444 7.57841 5.23262 6.85841 5.28716 6.47114C5.34171 6.07841 5.45625 5.59296 5.13989 4.28932C4.78535 2.8275 4.34898 2.24932 3.99444 1.98205C3.62898 1.70387 3.28535 1.5675 2.32535 2.08023C1.37625 2.5875 0.427164 3.98932 0.372619 5.45114Z" fill="white"/>
<g clip-path="url(#clip0_2923_2548)">
<path d="M17.9891 11.7166L16.7787 11.4313C17.7084 7.48662 15.251 3.51357 11.3063 2.5838L11.5916 1.37337C16.2064 2.46107 19.0768 7.10185 17.9891 11.7166Z" fill="white"/>
<path d="M11.0928 3.46344L10.8141 4.66974C13.6066 5.33363 15.3453 8.14481 14.6923 10.9398L15.896 11.2292C16.707 7.76417 14.5553 4.28525 11.0928 3.46344Z" fill="white"/>
<path d="M10.5916 5.62337L10.3063 6.8338C11.9166 7.21335 12.9161 8.82928 12.5366 10.4396L13.747 10.7249C14.2845 8.44452 12.872 6.16085 10.5957 5.63005L10.5916 5.62337Z" fill="white"/>
</g>
<defs>
<clipPath id="clip0_2923_2548">
<rect width="6.47743" height="12.1619" fill="white" transform="translate(8.21875 3.46094) rotate(-31.7375)"/>
</clipPath>
</defs>
</svg>
